<svg width="40" height="24" viewBox="0 0 40 24" fill="none" xmlns="http://www.w3.org/2000/svg">
  <path d="M23.27 3.48H16.73V20.52H23.27V3.48Z" fill="#FF5F00"/>
  <path d="M17.4512 12C17.4512 8.24 19.2211 4.93 22.0209 3.48C20.0209 1.82 17.4211 0.84 14.611 0.84C7.88089 0.84 2.4707 5.84 2.4707 12C2.4707 18.16 7.88089 23.16 14.611 23.16C17.4211 23.16 20.0209 22.18 22.0209 20.52C19.2211 19.07 17.4512 15.76 17.4512 12Z" fill="#EB001B"/>
  <path d="M37.5293 12C37.5293 18.16 32.119 23.16 25.389 23.16C22.5789 23.16 19.9791 22.18 17.9791 20.52C20.7789 19.07 22.5488 15.76 22.5488 12C22.5488 8.24 20.7789 4.93 17.9791 3.48C19.9791 1.82 22.5789 0.84 25.389 0.84C32.119 0.84 37.5293 5.84 37.5293 12Z" fill="#F79E1B"/>
</svg> 