<svg width="40" height="13" viewBox="0 0 40 13" fill="none" xmlns="http://www.w3.org/2000/svg">
  <path d="M15.2334 12.0844H12.0693L14.0768 1.02832H17.2409L15.2334 12.0844Z" fill="#244399"/>
  <path d="M27.5923 1.29785C26.9434 1.05379 25.936 0.833496 24.7044 0.833496C21.6887 0.833496 19.5835 2.39729 19.5724 4.61629C19.5513 6.24532 21.0697 7.14988 22.2091 7.69152C23.3829 8.24461 23.7739 8.61028 23.7739 9.10742C23.7628 9.86789 22.8121 10.2111 21.9259 10.2111C20.6966 10.2111 20.0432 10.0244 19.021 9.60442L18.623 9.43394L18.2002 12.0609C18.9756 12.3943 20.4143 12.6937 21.9103 12.7051C25.1186 12.7051 27.1773 11.1647 27.1995 8.79771C27.2106 7.48659 26.3543 6.47836 24.5929 5.68283C23.5173 5.17426 22.8766 4.83245 22.8877 4.31245C22.8877 3.85037 23.4389 3.37687 24.6272 3.37687C25.6219 3.35302 26.3344 3.59709 26.8922 3.84115L27.1884 3.97658L27.6018 1.45691L27.5923 1.29785Z" fill="#244399"/>
  <path d="M31.7619 8.20746C32.0127 7.56067 32.976 5.06401 32.976 5.06401C32.9648 5.0878 33.2401 4.32733 33.3923 3.85383L33.61 4.94422C33.61 4.94422 34.1835 7.63481 34.3035 8.20746C33.7545 8.20746 32.4362 8.20746 31.7619 8.20746ZM35.7596 1.02832H33.2912C32.6167 1.02832 32.121 1.23732 31.8258 1.99779L27.2451 12.0843H30.4536C30.4536 12.0843 30.986 10.5915 31.1059 10.2497C31.553 10.2497 34.5498 10.2497 35.1166 10.2497C35.2077 10.701 35.4873 12.0843 35.4873 12.0843H38.3337L35.7596 1.02832Z" fill="#244399"/>
  <path d="M10.176 1.02832L7.16772 8.8306L6.85039 7.40396C6.25373 5.45236 4.49348 3.33801 2.5293 2.26904L5.28223 12.0732H8.51407L13.3943 1.02832H10.176Z" fill="#244399"/>
  <path d="M4.68893 1.02832H0.0307743L0 1.23732C3.6354 2.17694 6.03039 4.51593 7.02778 7.40396L5.99626 1.99778C5.82512 1.25116 5.33152 1.04216 4.68893 1.02832Z" fill="#F9A533"/>
</svg> 